HIERARCHY
ROOT joint_Root
{
	OFFSET 0.0 0.0 0.0
	CHANNELS 6 Xposition Yposition Zposition Zrotation Xrotation Yrotation 
	JOINT Hips
	{
		OFFSET -0.726466 93.3139 -2.00062
		CHANNELS 6 Xposition Yposition Zposition Zrotation Xrotation Yrotation 
		JOINT Spine
		{
			OFFSET 15.7357 0.0 0.0
			CHANNELS 6 Xposition Yposition Zposition Zrotation Xrotation Yrotation 
			JOINT Chest
			{
				OFFSET 8.98455 -0.406207 0.0
				CHANNELS 6 Xposition Yposition Zposition Zrotation Xrotation Yrotation 
				JOINT Neck
				{
					OFFSET 16.3773 0.0 0.0
					CHANNELS 6 Xposition Yposition Zposition Zrotation Xrotation Yrotation 
					JOINT Head
					{
						OFFSET 6.45672 0.0 0.0
						CHANNELS 6 Xposition Yposition Zposition Zrotation Xrotation Yrotation 
						End Site
						{
							OFFSET 0.0 0.0 0.0
						}
					}
				}
				JOINT Shoulder_L
				{
					OFFSET 12.9942 -0.242716 4.98039
					CHANNELS 6 Xposition Yposition Zposition Zrotation Xrotation Yrotation 
					JOINT UpperArm_L
					{
						OFFSET 5.34809 0.0 0.0
						CHANNELS 6 Xposition Yposition Zposition Zrotation Xrotation Yrotation 
						JOINT LowerArm_L
						{
							OFFSET 24.3286 1.87007e-05 0.0
							CHANNELS 6 Xposition Yposition Zposition Zrotation Xrotation Yrotation 
							JOINT Hand_L
							{
								OFFSET 22.2916 0.0 0.0
								CHANNELS 6 Xposition Yposition Zposition Zrotation Xrotation Yrotation 
								End Site
								{
									OFFSET 0.0 0.0 0.0
								}
							}
						}
					}
				}
				JOINT Shoulder_R
				{
					OFFSET 12.9945 -0.242716 -4.98039
					CHANNELS 6 Xposition Yposition Zposition Zrotation Xrotation Yrotation 
					JOINT UpperArm_R
					{
						OFFSET -5.34813 0.0 0.0
						CHANNELS 6 Xposition Yposition Zposition Zrotation Xrotation Yrotation 
						JOINT LowerArm_R
						{
							OFFSET -24.3289 0.000322201 0.0
							CHANNELS 6 Xposition Yposition Zposition Zrotation Xrotation Yrotation 
							JOINT Hand_R
							{
								OFFSET -22.2915 -0.000108084 0.0
								CHANNELS 6 Xposition Yposition Zposition Zrotation Xrotation Yrotation 
								End Site
								{
									OFFSET 0.0 0.0 0.0
								}
							}
						}
					}
				}
			}
		}
		JOINT UpperLeg_L
		{
			OFFSET -2.19248 -6.46944 0.0
			CHANNELS 6 Xposition Yposition Zposition Zrotation Xrotation Yrotation 
			JOINT LowerLeg_L
			{
				OFFSET 39.0811 0.0 -1.23785e-05
				CHANNELS 6 Xposition Yposition Zposition Zrotation Xrotation Yrotation 
				JOINT Foot_L
				{
					OFFSET 40.9854 0.0 -1.26872e-05
					CHANNELS 6 Xposition Yposition Zposition Zrotation Xrotation Yrotation 
					JOINT Toes_L
					{
						OFFSET 11.7543 0.0 0.0
						CHANNELS 6 Xposition Yposition Zposition Zrotation Xrotation Yrotation 
						End Site
						{
							OFFSET 0.0 0.0 0.0
						}
					}
				}
			}
		}
		JOINT UpperLeg_R
		{
			OFFSET -2.19251 6.46944 0.0
			CHANNELS 6 Xposition Yposition Zposition Zrotation Xrotation Yrotation 
			JOINT LowerLeg_R
			{
				OFFSET -39.0811 -0.00228153 -0.0401928
				CHANNELS 6 Xposition Yposition Zposition Zrotation Xrotation Yrotation 
				JOINT Foot_R
				{
					OFFSET -40.9854 0.0 0.0
					CHANNELS 6 Xposition Yposition Zposition Zrotation Xrotation Yrotation 
					JOINT Toes_R
					{
						OFFSET -11.7543 0.0 0.0
						CHANNELS 6 Xposition Yposition Zposition Zrotation Xrotation Yrotation 
						End Site
						{
							OFFSET 0.0 0.0 0.0
						}
					}
				}
			}
		}
	}
}
MOTION
Frames:	9
Frame Time:	0.0333333
0.000000 0.000000 0.000000 0.000000 0.000000 -0.000000 -209.409000 88.300000 218.596000 12.321700 83.148000 80.179300 15.735700 0.000005 -0.000001 70.059600 82.983000 -66.633200 8.984550 -0.406207 -0.000000 5.596530 -4.839630 7.085130 16.377300 -0.000001 -0.000001 8.328350 -0.712702 -1.927060 6.456720 -0.000001 -0.000000 6.692000 2.897400 -1.319090 12.994200 -0.242716 4.980390 -89.733600 -0.813303 -71.858600 5.348090 -0.000007 -0.000001 -55.097400 32.926200 -34.582000 24.328600 0.000019 0.000005 -1.438600 -1.668760 -40.748300 22.291600 -0.000001 0.000005 12.580500 5.560060 -9.185000 12.994500 -0.242716 -4.980390 88.054900 5.110590 -69.130500 -5.348130 -0.000001 -0.000004 -69.069300 20.613900 -2.808910 -24.328900 0.000322 -0.000009 1.217620 10.857300 -6.443030 -22.291500 -0.000108 -0.000004 12.766100 5.304060 -0.042049 -2.192480 -6.469440 -0.000000 -169.159000 -1.803690 10.832400 39.081100 -0.000007 -0.000012 0.013549 -0.020635 33.286500 40.985400 -0.000006 -0.000013 4.526070 5.813910 -67.039900 11.754300 -0.000000 0.000003 -0.109665 -0.467941 -36.157200 -2.192510 6.469440 -0.000001 -172.445000 8.523050 153.473000 -39.081100 -0.002282 -0.040193 0.020348 -0.029287 30.201800 -40.985400 0.000008 0.000006 1.949980 -4.982200 -51.598300 -11.754300 -0.000006 -0.000006 -0.017874 -0.155212 -22.910800
0.000000 0.000000 0.000000 0.000000 0.000000 -0.000000 -205.074000 88.415300 219.748000 15.095300 83.027200 78.995100 15.735700 0.000005 -0.000001 72.441900 82.781000 -68.889500 8.984550 -0.406207 -0.000000 6.159810 -4.393210 7.336200 16.377300 -0.000001 -0.000001 8.417480 -0.562374 -1.959900 6.456720 -0.000001 -0.000000 6.930130 2.780240 -1.513820 12.994200 -0.242716 4.980390 -89.688500 -0.941115 -71.682800 5.348090 -0.000007 -0.000001 -58.859900 36.161100 -29.357500 24.328600 0.000019 0.000005 0.530130 0.729075 -36.164200 22.291600 -0.000001 0.000005 10.303800 5.546570 -8.525670 12.994500 -0.242716 -4.980390 88.137500 4.987850 -69.494200 -5.348130 -0.000001 -0.000004 -69.678400 21.938400 -4.282960 -24.328900 0.000322 -0.000009 1.086260 10.839600 -5.762720 -22.291500 -0.000108 -0.000004 11.841900 5.298340 0.119073 -2.192480 -6.469440 -0.000000 -168.828000 -1.599560 9.677450 39.081100 -0.000007 -0.000012 0.037053 -0.043292 40.557700 40.985400 -0.000006 -0.000013 4.850900 4.896380 -58.092400 11.754300 -0.000000 0.000003 -0.184712 -0.619097 -43.003400 -2.192510 6.469440 -0.000001 -172.426000 8.521210 156.250000 -39.081100 -0.002282 -0.040193 -0.019239 0.033046 34.287200 -40.985400 0.000008 0.000006 1.751100 -4.654460 -56.891700 -11.754300 -0.000006 -0.000006 -0.013133 -0.125720 -21.699800
0.000000 0.000000 0.000000 0.000000 0.000000 -0.000000 -201.190000 88.731100 220.859000 15.591700 83.115800 79.921700 15.735700 0.000005 -0.000001 74.543100 82.498100 -71.003600 8.984550 -0.406207 -0.000000 6.842040 -4.013970 7.313920 16.377300 -0.000001 -0.000001 8.373080 -0.566580 -1.686380 6.456720 -0.000001 -0.000000 6.970840 2.625330 -1.429440 12.994200 -0.242716 4.980390 -89.581300 -1.272650 -71.787700 5.348090 -0.000007 -0.000001 -64.195400 37.498800 -23.446800 24.328600 0.000019 0.000005 2.126880 3.601710 -30.618200 22.291600 -0.000001 0.000005 7.765280 5.511480 -6.980770 12.994500 -0.242716 -4.980390 88.174200 4.964740 -69.779300 -5.348130 -0.000001 -0.000004 -70.059300 24.042800 -6.594780 -24.328900 0.000322 -0.000009 1.116360 10.769700 -5.958740 -22.291500 -0.000108 -0.000004 10.948200 5.295310 0.202840 -2.192480 -6.469440 -0.000000 -168.805000 -1.063780 5.747490 39.081100 -0.000007 -0.000012 0.050404 -0.042445 49.897400 40.985400 -0.000006 -0.000013 4.220490 3.078470 -46.998100 11.754300 -0.000000 0.000003 -0.107317 -0.462370 -35.912100 -2.192510 6.469440 -0.000001 -172.467000 8.853660 159.958000 -39.081100 -0.002282 -0.040193 -0.054157 0.079910 35.711700 -40.985400 0.000008 0.000006 1.782470 -4.548750 -60.648900 -11.754300 -0.000006 -0.000006 -0.011150 -0.112037 -21.139300
0.000000 0.000000 0.000000 0.000000 0.000000 -0.000000 -197.993000 88.847200 221.754000 15.117300 83.553600 80.961500 15.735700 0.000005 -0.000001 76.965400 82.410100 -73.614800 8.984550 -0.406207 -0.000000 7.141880 -3.429700 6.909920 16.377300 -0.000001 -0.000001 8.053050 -0.857260 -1.191010 6.456720 -0.000001 -0.000000 6.976700 2.124030 -0.957773 12.994200 -0.242716 4.980390 -89.499700 -1.532520 -71.916500 5.348090 -0.000007 -0.000001 -69.441300 37.135300 -18.087300 24.328600 0.000019 0.000005 3.024340 6.663870 -24.498800 22.291600 -0.000001 0.000005 5.489200 5.464310 -5.150430 12.994500 -0.242716 -4.980390 88.109400 5.169510 -69.879800 -5.348130 -0.000001 -0.000004 -69.777200 26.325100 -9.369270 -24.328900 0.000322 -0.000009 1.360020 10.406800 -7.494320 -22.291500 -0.000108 -0.000004 10.238500 5.308470 -0.166688 -2.192480 -6.469440 -0.000000 -169.444000 -0.590726 -0.610974 39.081100 -0.000007 -0.000012 0.053332 -0.031893 59.116500 40.985400 -0.000006 -0.000013 3.745740 -0.182504 -35.660400 11.754300 -0.000000 0.000003 -0.007124 -0.080734 -19.863600 -2.192510 6.469440 -0.000001 -172.756000 9.489100 162.370000 -39.081100 -0.002282 -0.040193 -0.083242 0.115143 36.924600 -40.985400 0.000008 0.000006 1.870230 -4.415260 -63.771400 -11.754300 -0.000006 -0.000006 -0.010984 -0.110845 -21.090500
0.000000 0.000000 0.000000 0.000000 0.000000 -0.000000 -194.896000 89.234000 222.379000 20.055700 83.885700 76.534400 15.735700 0.000005 -0.000001 80.965700 82.348000 -77.889200 8.984550 -0.406207 -0.000000 7.425280 -2.403070 6.303310 16.377300 -0.000001 -0.000001 7.901130 -1.020120 -0.680123 6.456720 -0.000001 -0.000000 6.935140 1.325070 -0.391316 12.994200 -0.242716 4.980390 -89.360100 -1.938380 -71.727200 5.348090 -0.000007 -0.000001 -74.359600 34.923500 -13.262900 24.328600 0.000019 0.000005 3.408980 10.227700 -18.558200 22.291600 -0.000001 0.000005 4.083840 5.414990 -3.426350 12.994500 -0.242716 -4.980390 88.077000 5.370690 -70.266000 -5.348130 -0.000001 -0.000004 -68.813700 28.874300 -12.299200 -24.328900 0.000322 -0.000009 1.649900 9.200650 -10.221800 -22.291500 -0.000108 -0.000004 10.405600 5.327280 -0.704856 -2.192480 -6.469440 -0.000000 -170.199000 -1.672980 -5.460260 39.081100 -0.000007 -0.000012 0.047845 -0.021429 65.867500 40.985400 -0.000006 -0.000013 4.817710 -4.665340 -37.928300 11.754300 -0.000000 0.000003 -0.006613 -0.076316 -19.683300 -2.192510 6.469440 -0.000001 -173.291000 9.758080 165.633000 -39.081100 -0.002282 -0.040193 -0.099688 0.140387 36.260800 -40.985400 0.000008 0.000006 1.936050 -3.929110 -65.850400 -11.754300 -0.000006 -0.000006 -0.011175 -0.112217 -21.146700
0.000000 0.000000 0.000000 0.000000 0.000000 -0.000000 -191.975000 89.743000 222.786000 30.611300 84.503400 66.463400 15.735700 0.000005 -0.000001 85.288700 82.257100 -82.675100 8.984550 -0.406207 -0.000000 7.703210 -1.268140 5.307500 16.377300 -0.000001 -0.000001 7.890680 -1.020950 -0.393702 6.456720 -0.000001 -0.000000 6.886570 0.498073 -0.046180 12.994200 -0.242716 4.980390 -89.165300 -2.466300 -71.296000 5.348090 -0.000007 -0.000001 -78.245000 31.327900 -8.737120 24.328600 0.000019 0.000005 3.232960 12.709300 -14.402600 22.291600 -0.000001 0.000005 3.976680 5.358530 -1.633550 12.994500 -0.242716 -4.980390 88.151900 5.329410 -70.843200 -5.348130 -0.000001 -0.000004 -67.245700 31.369800 -15.678400 -24.328900 0.000322 -0.000009 1.897440 7.977130 -13.435900 -22.291500 -0.000108 -0.000004 11.106300 5.349650 -1.364110 -2.192480 -6.469440 -0.000000 -171.687000 -3.162680 -9.577930 39.081100 -0.000007 -0.000012 0.029458 -0.011026 69.469200 40.985400 -0.000006 -0.000013 6.386890 -6.240280 -43.257100 11.754300 -0.000000 0.000003 -0.006629 -0.076456 -19.689000 -2.192510 6.469440 -0.000001 -174.567000 9.909420 169.174000 -39.081100 -0.002282 -0.040193 -0.103483 0.154115 34.715300 -40.985400 0.000008 0.000006 1.969350 -3.039050 -67.311100 -11.754300 -0.000006 -0.000006 -0.010939 -0.110527 -21.077500
0.000000 0.000000 0.000000 0.000000 0.000000 -0.000000 -189.300000 90.212700 223.107000 43.535800 84.797500 53.240100 15.735700 0.000005 -0.000001 89.373100 82.365400 -87.221000 8.984550 -0.406207 -0.000000 7.509080 -0.171188 4.310880 16.377300 -0.000001 -0.000001 7.858390 -0.820878 -0.199183 6.456720 -0.000001 -0.000000 6.944160 -0.114241 -0.119015 12.994200 -0.242716 4.980390 -88.922700 -3.082330 -70.724500 5.348090 -0.000007 -0.000001 -80.742400 26.039800 -4.849450 24.328600 0.000019 0.000005 2.907240 14.220200 -11.680400 22.291600 -0.000001 0.000005 3.556100 5.335760 -0.953279 12.994500 -0.242716 -4.980390 88.321600 5.034660 -71.536600 -5.348130 -0.000001 -0.000004 -65.283800 33.437600 -19.501900 -24.328900 0.000322 -0.000009 2.068950 6.912810 -16.718000 -22.291500 -0.000108 -0.000004 11.857000 5.366840 -1.888570 -2.192480 -6.469440 -0.000000 -173.198000 -4.512540 -14.251800 39.081100 -0.000007 -0.000012 0.025548 -0.009254 70.076600 40.985400 -0.000006 -0.000013 6.112990 -6.382570 -45.895900 11.754300 -0.000000 0.000003 -0.006044 -0.071241 -19.476200 -2.192510 6.469440 -0.000001 -175.807000 10.608400 171.889000 -39.081100 -0.002282 -0.040193 -0.108126 0.173034 32.778900 -40.985400 0.000008 0.000006 2.179120 -1.532620 -68.353000 -11.754300 -0.000006 -0.000006 -0.011055 -0.111355 -21.111400
0.000000 0.000000 0.000000 0.000000 0.000000 -0.000000 -186.634000 90.630400 223.359000 57.798800 84.766500 39.043500 15.735700 0.000005 -0.000001 93.143500 82.286100 -91.485500 8.984550 -0.406207 -0.000000 7.629080 0.840705 3.256520 16.377300 -0.000001 -0.000001 7.809180 -0.318476 0.007656 6.456720 -0.000001 -0.000000 6.932940 -0.567167 -0.460807 12.994200 -0.242716 4.980390 -88.729200 -3.488970 -69.972600 5.348090 -0.000007 -0.000001 -81.227500 22.701300 -1.952840 24.328600 0.000019 0.000005 2.410350 13.063100 -10.549100 22.291600 -0.000001 0.000005 3.060990 5.307620 -0.142357 12.994500 -0.242716 -4.980390 88.496200 4.752070 -72.417300 -5.348130 -0.000001 -0.000004 -62.947900 34.595700 -23.499200 -24.328900 0.000322 -0.000009 2.118830 5.864230 -19.920500 -22.291500 -0.000108 -0.000004 12.071100 5.383250 -2.400740 -2.192480 -6.469440 -0.000000 -174.735000 -5.590160 -17.438300 39.081100 -0.000007 -0.000012 0.021566 -0.008957 67.432800 40.985400 -0.000006 -0.000013 5.884010 -5.415300 -49.434300 11.754300 -0.000000 0.000003 -0.006954 -0.079279 -19.804200 -2.192510 6.469440 -0.000001 -177.300000 11.325900 175.098000 -39.081100 -0.002282 -0.040193 -0.112110 0.195507 30.554000 -40.985400 0.000008 0.000006 2.286400 0.010729 -69.220400 -11.754300 -0.000006 -0.000006 -0.010887 -0.110147 -21.062000
0.000000 0.000000 0.000000 0.000000 0.000000 -0.000000 -183.964000 90.950500 223.584000 70.197000 84.306000 26.620800 15.735700 0.000005 -0.000001 96.661300 82.227100 -95.428800 8.984550 -0.406207 -0.000000 7.659570 1.795010 2.342410 16.377300 -0.000001 -0.000001 7.726140 0.224146 -0.016106 6.456720 -0.000001 -0.000000 6.882950 -0.731193 -0.798379 12.994200 -0.242716 4.980390 -88.683300 -3.465500 -69.180800 5.348090 -0.000007 -0.000001 -80.462700 21.218500 0.499649 24.328600 0.000019 0.000005 2.157470 11.646100 -10.571200 22.291600 -0.000001 0.000005 3.258550 5.300320 0.064055 12.994500 -0.242716 -4.980390 88.624000 4.558340 -73.183700 -5.348130 -0.000001 -0.000004 -60.144800 35.188100 -27.547100 -24.328900 0.000322 -0.000009 1.987140 4.729110 -22.836700 -22.291500 -0.000108 -0.000004 12.098100 5.395700 -2.797880 -2.192480 -6.469440 -0.000000 -175.992000 -6.396370 -19.477600 39.081100 -0.000007 -0.000012 0.021065 -0.011471 61.418600 40.985400 -0.000006 -0.000013 5.486740 -4.384890 -52.981600 11.754300 -0.000000 0.000003 -0.006019 -0.071016 -19.467100 -2.192510 6.469440 -0.000001 -178.753000 11.713200 178.271000 -39.081100 -0.002282 -0.040193 -0.127461 0.244264 28.162600 -40.985400 0.000008 0.000006 2.252470 1.419350 -69.962100 -11.754300 -0.000006 -0.000006 -0.010462 -0.107061 -20.935700
